<svg xmlns="http://www.w3.org/2000/svg" version="1.1" xmlns:xlink="http://www.w3.org/1999/xlink" width="512" height="512"><svg xmlns="http://www.w3.org/2000/svg" viewBox="0 0 512 512"><defs><style>.cls-1{fill:#80dbff;}.cls-2{fill:#9e6f46;}.cls-3{fill:#895c3a;}.cls-4{fill:#ffda45;}.cls-5{fill:#fff;}.cls-6{fill:#cdd2e1;}.cls-7{fill:#06ccab;}.cls-8{fill:#10a18c;}</style></defs><title>Development</title><g id="SvgjsG1014"><circle class="cls-1" cx="256" cy="256" r="256"></circle></g><g id="SvgjsG1013"><path class="cls-2" d="M411,264.51l-20.72-20.73c4.1-27.33,4.07-54.22-.47-76.7A145.78,145.78,0,1,0,104,224.81c5.45,27,19.36,57.31,38.47,84.9a158,158,0,0,1,28.4,89.94v66.47A19.88,19.88,0,0,0,190.74,486h99.39A19.88,19.88,0,0,0,310,466.12V409.78a12.89,12.89,0,0,1,12.89-12.89h0a60.72,60.72,0,0,0,60.72-60.72V287.45h17.84A13.44,13.44,0,0,0,411,264.51Z"></path><path class="cls-3" d="M159.21,224.8c5.45,27,19.37,57.32,38.47,84.92a158,158,0,0,1,28.4,89.93v66.47A19.88,19.88,0,0,0,246,486H190.74a19.88,19.88,0,0,1-19.88-19.88V399.65a158,158,0,0,0-28.4-89.93c-19.1-27.6-33-57.93-38.47-84.92a145.85,145.85,0,0,1,170.6-172l-1.35.26A145.79,145.79,0,0,0,159.21,224.8Z"></path><circle class="cls-4" cx="253.99" cy="135.18" r="120.4"></circle><path class="cls-5" d="M257.59,28.86h-5.06a12.66,12.66,0,0,0-11.15,6.65L202.44,112.7a29.08,29.08,0,0,0-2.63,20.87l22.41,75h63.46l22.49-75.38a29,29,0,0,0-2.34-20.32l-37-77.16A12.67,12.67,0,0,0,257.59,28.86Z"></path><path class="cls-6" d="M268.18,114H239.81a10,10,0,0,0-10,10v0a10,10,0,0,0,10,10H244v92.23a10,10,0,0,0,10,10h0a10,10,0,0,0,10-10V134h4.21a10,10,0,0,0,10-10v0A10,10,0,0,0,268.18,114Z"></path><rect class="cls-7" x="207.3" y="208.61" width="93.39" height="34.51" rx="10.67"></rect><path class="cls-8" d="M283.53,243.13V276a16.79,16.79,0,0,1-16.79,16.78H241.25A16.79,16.79,0,0,1,224.46,276V243.13Z"></path></g></svg><style>@media (prefers-color-scheme: light) { :root { filter: none; } }
@media (prefers-color-scheme: dark) { :root { filter: none; } }
</style></svg>